<svg width="356" height="311" viewBox="0 0 356 311" fill="none" xmlns="http://www.w3.org/2000/svg">
<path d="M123.372 4.17755C119.494 3.91127 109.646 31.5378 108.299 34.6633" stroke="black" stroke-width="3" stroke-linecap="round"/>
<path d="M123.562 3.20173C122.303 1.03191 124.995 4.21317 125.281 4.77562C128.827 11.7449 131.371 19.2776 134.196 26.5529" stroke="black" stroke-width="3" stroke-linecap="round"/>
<path d="M138.313 31.4092C147.106 29.3581 158.199 30.452 166.913 31.9311C177.183 33.6742 187.865 35.2918 197.623 38.9433" stroke="black" stroke-width="3" stroke-linecap="round"/>
<path d="M200.337 35.4214C201.154 31.2399 206.187 27.0721 208.659 23.9339C212.845 18.6221 216.764 15.041 222.263 11.3396" stroke="black" stroke-width="3" stroke-linecap="round"/>
<path d="M222.743 11.2745C223.417 12.0244 224.801 13.7986 226.001 16.2479C231.131 26.721 231.446 36.8829 234.322 48.1386" stroke="black" stroke-width="3" stroke-linecap="round"/>
<path d="M107.917 36.6149C106.253 36.7016 101.135 49.2411 100.752 49.9604C97.1857 56.6589 92.9483 63.1953 89.7817 70.1042C83.6468 83.4892 99.1003 95.8999 108.022 103.496" stroke="black" stroke-width="3" stroke-linecap="round"/>
<path d="M110.568 106.019C110.535 106.022 117.463 140.797 117.81 142.094" stroke="black" stroke-width="3" stroke-linecap="round"/>
<path d="M235.975 53.7706C236.51 56.7495 237.32 61.4554 237.808 64.5779C240.536 82.0138 244.265 99.3434 247.964 116.595C251.254 131.943 252.029 134.611 251.955 150.317" stroke="black" stroke-width="3" stroke-linecap="round"/>
<path d="M155.609 63.4678C155.609 65.6357 154.272 67.1639 155.609 68.7419C159.528 73.3647 164.358 73.9246 168.317 69.6878" stroke="black" stroke-width="3" stroke-linecap="round"/>
<path d="M146.468 67.4457C145.767 72.7856 153.679 71.3375 154.737 68.5496" stroke="black" stroke-width="3" stroke-linecap="round"/>
<path d="M151.751 71.5168C151.15 75.7743 157.429 92.8712 160.683 92.0591C163.475 88.4365 163.31 78.5614 164.158 74.2214" stroke="black" stroke-width="3" stroke-linecap="round"/>
<path d="M93.394 59.1037C86.6145 57.7793 79.9031 55.0985 73.2834 53.149" stroke="black" stroke-width="3" stroke-linecap="round"/>
<path d="M90.3442 74.7165C83.6794 73.4145 76.0145 78.4302 70.6829 82.0191" stroke="black" stroke-width="3" stroke-linecap="round"/>
<path d="M219.822 75.697C228.702 72.4805 243.79 79.2123 252.214 81.0117" stroke="black" stroke-width="3" stroke-linecap="round"/>
<path d="M222.222 89.3355C231.15 91.8648 239.928 98.2217 248.02 102.479" stroke="black" stroke-width="3" stroke-linecap="round"/>
<path d="M245.678 145.582C245.977 139.432 225.673 134.225 217.749 135.568C209.158 137.024 197.684 142.263 196.026 150.752C195.343 154.248 193.95 157.928 196.025 161.209C199.159 166.163 207.608 167.678 213.798 167.314C220.613 166.913 227.593 167.424 230.711 161.119C232.202 158.104 234.403 154.418 231.773 152.573" stroke="black" stroke-width="3" stroke-linecap="round"/>
<path d="M116.604 147.72C118.254 139.274 139.059 135.472 146.362 140.589C152.935 145.194 156.11 147.733 154.47 156.13C152.946 163.929 137.576 164.986 131.691 163.837C124.023 162.339 116.777 161.826 112.152 154.954" stroke="black" stroke-width="3" stroke-linecap="round"/>
<path d="M32.3745 210.249C32.3745 205.67 32.4614 219.412 32.7155 223.985C34.3342 253.123 36.9257 279.712 39.9348 308.708" stroke="black" stroke-width="3" stroke-linecap="round"/>
<path d="M40.6082 308.978C92.1235 308.978 146.542 307.442 198.058 307.442C238.584 307.442 268.807 308.637 308.941 302.463" stroke="black" stroke-width="3" stroke-linecap="round"/>
<path d="M296.077 177.512C296.077 181.859 296.827 189.162 297.276 192.35C301.025 218.971 304.217 232.243 307.656 258.898C309.376 272.227 309.304 287.289 309.304 300.701" stroke="black" stroke-width="3" stroke-linecap="round"/>
<path d="M310.229 301.838C311.262 300.543 315.671 294.263 316.204 293.553C321.048 287.095 323.743 282.334 328.96 276.175C333.725 270.55 337.943 264.902 341.624 258.592" stroke="black" stroke-width="3" stroke-linecap="round"/>
<path d="M327.672 178.627C327.772 181.746 330.023 188.796 330.593 191.959C334.329 212.676 338.651 235.378 342.673 256.04" stroke="black" stroke-width="3" stroke-linecap="round"/>
<path d="M25.0029 157.523C46.9495 157.34 86.2158 154.966 108.162 154.966" stroke="black" stroke-width="3" stroke-linecap="round"/>
<path d="M157.32 156.016C168.134 156.016 178.976 154.916 189.759 154.263" stroke="black" stroke-width="3" stroke-linecap="round"/>
<path d="M235.894 151.829C246.586 151.829 276.045 145.346 290.855 146.583" stroke="black" stroke-width="3" stroke-linecap="round"/>
<path d="M290.955 146.126C292.364 147.222 293.227 150.333 293.385 151.646C294.993 165.047 295.938 178.539 297.184 191.975" stroke="black" stroke-width="3" stroke-linecap="round"/>
<path d="M24.2985 158.194C23.9396 161.783 22.7908 164.467 21.6909 167.654C16.5081 182.67 11.2513 195.361 2.30566 208.373" stroke="black" stroke-width="3" stroke-linecap="round"/>
<path d="M2.9104 208.567C9.06939 210.547 15.5775 209.144 22.9085 209.201C58.9642 209.479 95.0903 207.037 131.086 205.353C161.596 203.925 192.099 202.025 222.654 202.431C242.142 202.689 246.693 203.36 266.184 203.36" stroke="black" stroke-width="3" stroke-linecap="round"/>
<path d="M25.7336 157.474C27.305 156.381 28.7831 155.756 30.6043 154.893C43.3006 148.879 56.1575 143.192 68.9364 137.359" stroke="black" stroke-width="3" stroke-linecap="round"/>
<path d="M70.3726 137.359C78.9727 137.359 103.748 136.346 112.339 135.964" stroke="black" stroke-width="3" stroke-linecap="round"/>
<path d="M251.998 128.591C266.131 128.591 261.25 128.655 275.452 128.591C294.577 128.506 298.611 130.345 317.736 130.345" stroke="black" stroke-width="3" stroke-linecap="round"/>
<path d="M289.838 145.475C298.295 141.024 307.495 135.513 316.051 131.234" stroke="black" stroke-width="3" stroke-linecap="round"/>
<path d="M317.736 130.475C323.427 130.896 331.252 138.316 335.509 141.476C341.459 145.891 346.845 149.911 353.774 152.386" stroke="black" stroke-width="3" stroke-linecap="round"/>
<path d="M293.304 146.303C297.313 160.045 308.846 172.69 317.706 182.948" stroke="black" stroke-width="3" stroke-linecap="round"/>
<path d="M318.542 183.439C321.291 179.728 325.681 178.07 330.497 174.269C339.593 167.089 342.923 160.289 353.915 151.997" stroke="black" stroke-width="3" stroke-linecap="round"/>
<path d="M289.897 146.126C286.645 149.378 286.291 155.007 285.416 159.179C283.022 170.59 281.188 181.931 279.815 193.469C279.479 196.289 279.911 198.903 276.99 200.093C272.123 202.075 272.403 201.607 267.396 203.188" stroke="black" stroke-width="3" stroke-linecap="round"/>
<path d="M136.853 55.5566C136.123 55.5566 134.395 55.2242 134.139 56.122C133.882 57.0202 133.715 59.0633 134.927 59.1346C139.581 59.4083 137.562 55.7919 136.853 57.2086" stroke="black" stroke-width="3" stroke-linecap="round"/>
<path d="M185.572 63.3637C184.649 61.9786 181.031 62.3155 182.518 65.3405C185.062 67.5214 186.444 64.135 185.158 64.135" stroke="black" stroke-width="3" stroke-linecap="round"/>
</svg>
